<svg xmlns="http://www.w3.org/2000/svg" viewBox="0 0 1522 1801"><g fill="currentColor"><path d="M0 68.4v68.3l3.8.7c89 15.1 203.6 19.6 305.2 12.1 170.6-12.7 322.4-59.2 444.5-136.3l17.5-11c2.4-1.3 2.9-1.2 10.2 3.1a936 936 0 0 0 99.5 49 1196 1196 0 0 0 610.6 85.6c13.7-1.7 25-2.9 25.1-2.7s1.3 181.9 2.5 403.8l2.4 421c.1 9.6.4-202.9.5-472.3L1522 0H0z"/><path d="M758 82.7c-99.8 63.8-220.7 105-359.2 122.2a1219 1219 0 0 1-319.7-3.5c-9-1.4-16.6-2.3-16.9-2s0 109.1.7 241.8l1.7 376.3c.5 141.1 1.3 182.6 3.9 208.5 11.6 116.2 54.7 223.1 129.6 322 74.4 98.3 180.5 187.9 310.9 262.5a1458 1458 0 0 0 243.6 111.2l19.5 6.5 14.7-5.7c295.8-116.1 500.8-278.7 604.8-480 40.8-78.9 65.8-167 68-239 .6-22.1-4-803.2-4.8-804-.3-.4-9.8.5-21 1.9-49.3 6.2-79.7 8-134.3 8a870 870 0 0 1-98.5-4 1114 1114 0 0 1-354-93.1A880 880 0 0 1 772.2 74c-.4 0-6.8 3.9-14.2 8.7m19.3 27.2a104 104 0 0 0 8.9 17.1c.7.4 9.1 2 18.6 3.6 9.4 1.5 17.2 3.1 17.1 3.4s-6.1 5.9-13.4 12.5a65 65 0 0 0-13.4 14c0 1.1 1 9.4 2.4 18.5s2.2 16.6 2 16.9-7.7-3.7-16.7-8.7l-16.2-9-16.9 8.5c-15.2 7.6-16.9 8.2-16.4 6.1l3.8-18.5 3.2-16.3-12.8-13.5c-7-7.5-12.6-13.7-12.4-13.9s7.2-1.1 15.4-2c8.3-.9 16.4-1.9 18.2-2.2 2.9-.5 3.8-1.8 11.8-17.1 4.8-9 8.8-16.3 9-16.1zM655 214.5l3.4 2.5h30.3c28.5 0 30.6-.1 34.4-2 3-1.6 4.4-1.8 5.9-1 3.1 1.7 14.3 25 14.4 30.2.1 4-.1 4.3-2.7 4.6-2.3.3-4.1-.8-9.6-6.1-8.8-8.3-13.8-10.7-22.2-10.7-3.7 0-7 .5-7.7 1.2-1.5 1.5-1.7 71.5-.3 73.7.5.8 2.4 2.2 4.2 3 4.1 2 5.4 4.1 4.6 7.3-1 4-5.1 4.8-23.6 4.8-18.9 0-21.4-.7-21.9-5.7-.2-2.5.3-3.5 2.4-5 1.4-1 3.7-2.8 5-4l2.4-2.2v-34c0-20.8-.4-35-1-36.7-1-2.6-1.2-2.7-8.4-2.2-8.5.6-11.6 2.2-21.5 11.1-4.9 4.4-7 5.7-9 5.5-4.5-.5-3.9-4.3 3.1-17.9 5.8-11.3 11.2-18.9 13.5-18.9a15 15 0 0 1 4.3 2.5m121.4 1.1c1.4.5 1.6 3.5 1.6 22.6v22l3.7-3.2c11.3-10 23.9-7.4 30.9 6.1 1.3 2.6 4.4 12.9 6.9 22.9 5.1 20.4 6.1 22.9 10.5 26 3.8 2.7 3.8 6.8 0 8.7a101 101 0 0 1-32 0q-6.2-3.1 1.2-9.7l4.3-4-2.3-11.2c-4.3-21-8-28.8-13.9-28.8-7.6 0-9.3 4.5-9.3 24.5v15.6l4.5 4.3c2.5 2.5 4.5 4.9 4.5 5.5s-.9 2-2 3.1c-1.8 1.8-3.3 2-17.1 2-8.4 0-15.9-.5-17-1-3.4-1.9-2.4-6.2 2.1-9.9l4-3.2V240l-4-2.5c-6.7-4.2-5.7-5.8 9.9-15.4l11.7-7.1zm107.9 38.3c2.6 1.3 6.7 4.3 9.2 6.7 4.6 4.6 9.8 14.3 9.3 17.2-.2 1.2-6 3.6-21.3 8.8a96 96 0 0 0-21.3 8.5c-.6 3 5.5 10.6 10.2 12.9 7.2 3.5 14.3 2.6 23.4-2.9 9.4-5.7 14-4.5 10.5 2.8-4.8 9.9-24.4 17.4-39.3 15-20.7-3.3-32.9-17.9-31.8-38.3a34 34 0 0 1 24.1-31.8 43 43 0 0 1 27 1.1m-31.8 98.5c27 9.1 49.4 34.9 57.4 66.1 9 35 3.3 70.9-14.9 93.1-20.3 24.8-59.2 34-95.3 22.4a71 71 0 0 1-48.4-52.8 84 84 0 0 1-2.7-27.2c0-19 .8-24.9 5.6-40 9.6-29.9 29.6-52.4 54.5-61.2a55 55 0 0 1 24.8-3.4c8.7.3 12.7.9 19 3m-496.7 1.4c1 1 10.4 30.4 23.6 73.7 12 39.6 23.1 74.5 24.7 77.6s4.4 6.9 6.4 8.5c9.1 7.4 9.6 8 10.1 11.4q1.4 8.2-5.7 10c-5.9 1.6-55.6 1-58.6-.8-3.1-1.7-4.5-7.4-3-12q1.2-3.7 5.2-5.9c5.2-2.9 5.9-5.2 4-12.6q-3.2-12.2-9.4-16.4c-3.3-2.2-4.2-2.3-23.3-2.3-22.2 0-24.9.6-29 6.1a42 42 0 0 0-6.8 18.4q0 3.6 2.1 5.3c8.5 6.8 8.9 7.3 8.9 11.2q0 4-2.4 6.7l-2.4 2.8h-23.1c-22.1 0-23.1-.1-25.1-2.1-2.8-2.8-3.7-9.2-1.7-13 .9-1.7 3.9-4.1 7.3-6 5.2-2.8 6.4-4 9.6-10 2-3.8 15.7-38.6 30.3-77.4 20.1-53.5 27.2-71 29.1-72.8 2.3-2 3.5-2.2 15-2.2 10.5 0 12.7.3 14.2 1.8m132.8 1.5c4.8 5.6 2.2 12.9-5.5 16.1-7.6 3-8.2 6.4-11.1 63.6-2.4 48.1-1.7 57.7 4.9 68.1 2.2 3.5 4.4 5.4 8.7 7.5 5.1 2.5 6.8 2.8 15.4 2.8 9.1 0 10.2-.2 16.6-3.5 5.4-2.6 7.6-4.5 10.1-8.2 5.1-7.7 6.3-13.1 6.3-29.6 0-17.3-2.6-70.9-4.1-83.5-1.3-11.4-2.7-14.7-8.2-18.4q-8-5.6-6.1-12.5c1.6-5.3 3.6-5.8 26.1-5.5 19.5.3 20.3.4 22.5 2.6q2.4 2.1 2.3 6.1c0 4.5-1.9 7-8 10.6-7 4.1-7 4.1-4.6 41.2 4.5 69.5 4.7 77.6 1.9 89.3-4.3 17.7-16.9 29.8-36.4 34.7-10.7 2.6-36 2.4-47.8-.5-22-5.5-34.4-17.5-39.2-37.9-2.3-10-2-26.4 1.5-68.8 3.4-40.5 3.8-52.3 1.9-54.7-.7-.9-3.2-2.8-5.5-4.2a22 22 0 0 1-5.9-5.1c-2.2-3.4-1.1-8.8 2.3-11.5 2.6-2 3.6-2.1 31.1-1.8l28.4.3zM659 353c12.8 1.4 21 3.5 30.5 8 29.7 13.8 47.4 46.5 41.1 76a46 46 0 0 1-26.3 33.6c-4.5 2.1-8 4.4-7.8 5 .7 2.3 20.9 30.1 24.9 34.2 2.2 2.4 6.2 5.5 8.8 6.8 5.3 2.7 6.8 4.8 6.8 9.6q0 6.8-6.8 8.8c-2.1.5-14.8 1-29.5 1-29.7 0-31.9-.4-33.6-6.5-1.8-6.5 2.1-13.1 9.2-15.8 1.8-.7-2.6-8.2-11.3-19l-7.5-9.4-12.5-.6c-16.3-.7-16-.9-16 13a48 48 0 0 0 1 12.3c.5 1 3 3 5.4 4.4 5.5 3.2 7.6 6 7.6 10.3s-1.7 7.8-4.9 9.4c-2.9 1.5-44 2.6-52 1.4-6.1-.9-10.1-5-10.1-10.2 0-4.8 2-7.8 7.1-10.3 7.9-4.1 7.4.4 7.4-71.6 0-72.5.8-65.7-8.1-70.9a18 18 0 0 1-5.4-4.5c-1.3-2.4-1.3-7.1 0-10.5 1.9-5.1 4.6-5.4 40-5.4 17.9-.1 36.8.4 42 .9m364.9 1.8c33.4 7.4 57.5 33.9 59.8 65.8a49 49 0 0 1-30.7 51.9l-4.9 2.1c-.6.5 21.1 30.9 25.3 35.2 2.3 2.4 6.2 5.5 8.8 6.8 5.3 2.7 6.8 4.8 6.8 9.6q0 6.8-6.8 8.8a402 402 0 0 1-58.1-.1c-3.9-1.4-5.1-3.5-5.1-9.4 0-3.9.5-5.2 3.1-7.5 1.6-1.6 3.9-3.2 5-3.5 1-.4 1.9-1.3 1.9-2.1 0-1.8-4.6-8.6-12.9-19.1l-6.4-8-12.6-.6c-16.4-.7-16.1-.9-16.1 13 0 5.7.5 11.3 1 12.4s2.5 2.6 4.3 3.5c6.3 3.2 8.7 6.3 8.7 11.4 0 5.9-1.9 8.5-7.4 9.9a320 320 0 0 1-51.8.1 10 10 0 0 1-7.8-9.9c0-4.6 2.1-7.6 6.8-10 2-1 4.6-2.9 5.7-4.1 1.9-2.2 2-3.8 2.3-64.6q.3-62.4-.8-66.4c-.9-3.2-1.9-4.4-6.1-6.7q-8-4.2-7.9-10.8c0-4.3 2.7-8.4 6.3-9.4a424 424 0 0 1 41.7-.7c34.5.3 39.5.6 47.9 2.4M1199 353c2.3 1.2 1.7-.4 26 79.5a1313 1313 0 0 0 23.3 72.5 28 28 0 0 0 9.2 11.1c6.6 5.1 8.4 8.7 6.9 14.1-1.5 5.2-4.5 5.7-32.4 5.7-25.5.1-31.6-.6-33.7-3.5-1.6-2.1-1.7-9.8-.3-12.5.6-1 2.8-2.8 5-3.9 2.1-1.1 4.2-2.9 4.5-4 1.5-4.8-3.9-19.2-9-24l-2.7-2.5h-22.3c-26.2 0-25.9-.1-31.3 10.6-5.5 10.8-5.6 17.1-.2 20.2 5.2 3.1 7 5.7 7 10.2 0 3.2-.6 4.7-2.6 6.6-2.6 2.4-2.6 2.4-25.5 2.4-21.7 0-22.9-.1-24.9-2.1-2.8-2.8-3.5-8.2-1.7-12.5 1.1-2.7 2.8-4.2 7.2-6.4 6.3-3.2 8.7-6.3 12.8-16.1 1.4-3.3 14.1-36.5 28.2-73.9s26.2-68.6 26.8-69.4c.6-.7 2-1.7 3.2-2.1a98 98 0 0 1 26.5 0m-991 67.8c6.4 14 8.8 18.4 10.4 18.7l19.5 3.5c9.6 1.6 17.6 3.1 17.8 3.4s-6 6.3-13.9 13.6a187 187 0 0 0-14.6 14.2c-.2.5.8 9.5 2.3 19.9a220 220 0 0 1 2.3 19.5c-.3.2-8.1-3.9-17.4-9.1s-17.2-9.5-17.6-9.5-8.7 3.8-18.4 8.5-17.9 8.4-18.1 8.2c-.1-.2 1.5-9.1 3.6-19.8l3.9-19.4-14-14.7c-12.5-13.2-13.7-14.8-11.6-15.2 1.3-.3 9.5-1.3 18.3-2.2s16.9-2.1 18.1-2.5q2-.7 11.3-18.4c5.1-9.7 9.4-17.5 9.6-17.3zm1126 3.2c6.4 13.8 8.8 18.2 10.4 18.5l19.5 3.5c9.6 1.6 17.6 3.1 17.8 3.4s-6.1 6.4-14.1 13.7c-8 7.4-14.6 14.1-14.6 14.9s1.2 9.7 2.6 19.8 2.4 18.5 2.2 18.8c-.3.2-8.2-3.9-17.7-9.2l-17.2-9.6-6.2 2.7-18.1 8.7c-6.5 3.3-12 5.7-12.2 5.5s1.4-9.1 3.5-19.7l3.9-19.4L1280 461c-8.3-8.7-13.4-14.7-12.7-15.1.7-.3 8.9-1.4 18.2-2.4 9.4-1 17.9-2.1 19-2.5 1.3-.5 5.2-6.9 11-17.9 5-9.4 9.3-17.1 9.6-17.1.4 0 4.4 8.1 8.9 18M871.8 567.6c38.7 7.9 69 43.7 77.9 91.7a219 219 0 0 1 .4 51.2 133 133 0 0 1-12.8 37.5 109 109 0 0 1-29.5 30.9c-25.7 15-62.7 17.1-93.3 5.2-38.1-14.7-58.3-55-53.7-106.5 6.4-71.3 56.8-121.2 111-110M636.1 569c4.8 1.3 7.9 5 8.6 9.9.8 5.6-1.2 9.6-6.3 13.2-6.1 4.2-7.4 6.4-7.4 12.8a3933 3933 0 0 0 16.3 142.5c.7 2.2 2.4 4.8 4 6 2.7 2 2.8 2 19.4.2 27.5-2.9 33.9-6 51.1-24.5a81 81 0 0 1 12.3-11.6c5.3-1.7 9.9 2.8 9.9 9.9 0 4.5-19.6 59.5-22.3 62.3-2.9 3.2-6.3 2.9-11.1-1-5.9-4.9-8.4-6-13.2-5.9-2.3.1-24.2 2.4-48.6 5.2-24.3 2.9-46.5 5-49.2 4.7q-8.6-.7-10.2-9.2c-1.2-6.6-.2-8.2 10-17.1 3.4-2.9 3.6-3.5 3.6-9.3 0-3.3-3.6-37.9-8.1-76.8-5.8-51-8.5-71.8-9.7-74.3-1.7-3.4-2.8-4.2-10.6-7.6-9.8-4.3-10.2-18.8-.7-22.6 1.9-.8 41.1-6 57.6-7.7.6 0 2.6.4 4.6.9m420.4 25.6c15 4.7 21.7 7.2 23.5 9s7.8 17.5 23.6 62.6l21.2 60.2 5-16c13.4-42.4 16.2-51.7 16.2-54 0-3.3-2.1-7.3-5.5-10.4-6.4-5.8-6.5-14.3-.4-19.4 4.5-3.8 8.1-3.4 29.5 3.3 16.3 5.2 19.3 6.4 21.8 9.2 2.6 2.9 2.8 3.7 2.2 8.2q-1 9.5-10.4 11.6c-8.3 2-10 3.1-12.1 7.5-1.1 2.2-13.8 41.9-28.2 88.1a2584 2584 0 0 1-27.4 85.3c-1 1.2-3.2.8-12.9-2.2q-11.4-3.7-11.6-5.1c0-.7 1.6-6.4 3.6-12.7 4.4-13.9 5-18.7 3.4-26.3a5327 5327 0 0 0-48.5-141.3c-.6-.6 1.3-6.6-19.5 60.3-10 31.9-18.2 59.8-18.3 62.1-.2 4.1-.2 4 7.8 14 4.4 5.6.7 16.4-6.5 18.5-3.5 1.1-5.4.7-24.7-5.2-26.5-8.2-30-10.8-27.3-21 1.5-5.6 5.1-8.6 11.7-9.9 10.7-2.3 8.7 2.4 34.4-79.8 25.4-81.2 24-74 16.8-81.9-4.3-4.7-5-8.7-2.5-14.7a10 10 0 0 1 10-6.6c2.2 0 13.5 3 25.1 6.6m-601.3 12.8c22 4.3 43.5 17.3 60.1 36.4 15.6 18 27.1 42.2 32.8 69.5 3.1 14.4 3.1 33.9.1 46.1q-13 52.5-70.8 67.2c-41.9 10.6-76.9-1.7-99.3-34.9a143 143 0 0 1-15.1-32.4c-16.3-48.7-7.8-99.7 21.6-129.8a77 77 0 0 1 70.6-22.1m-205.4 60.2c3.1 2 12.2 8.9 20.2 15.3 25.1 19.9 30.2 25.7 27.9 31.8-2.1 5.7-5.6 5.7-22.5-.1-25.3-8.8-40.9-9.8-53.8-3.8-31.6 14.8-33.8 57.7-5.1 101.7 14.2 21.8 31.8 36.2 50.1 41 22.1 5.8 45.2-4 59.3-25a69 69 0 0 0 11.2-28.5c2.2-10.6 3.8-13.7 7.6-14.6q5.8-1.5 10.5 5.1c10.1 14.5 2.8 48.5-15.4 71.1a117 117 0 0 1-55.3 36.1c-8.4 2.5-10.2 2.7-26 2.7-15.6 0-17.7-.2-25.9-2.8-34.6-10.6-62.8-40.2-76.1-79.9a109 109 0 0 1-6.2-43.7 81 81 0 0 1 7.2-35.1 96 96 0 0 1 61.1-52.9 91 91 0 0 0 12.9-5.1c.5-.5 1.2-4.1 1.6-7.9.3-3.8 1.2-7.7 2-8.6 2-2.5 8.2-1.2 14.7 3.2m1012.2 5.7a597 597 0 0 1 48.6 28.6c6.4 6.4-.9 17.1-11.8 17.1-4.4 0-5.6 1-6.8 5.1-1.9 6.6-.6 65.9 1.4 65.9 1.7 0 39.3-21 47.6-26.7 10.7-7.2 11.5-8.2 10.4-14-1.5-9.1-1.1-13.9 1.5-16.7 4.1-4.4 6.9-3.6 26.6 7.5 9.9 5.5 19.4 11 21.2 12.2 6 4 6.9 9.9 2.4 14.9-2.7 3-3.2 3.2-9.1 3.1-7.3-.2-7.7-.1-28.1 12.3-13.7 8.3-72.2 42-74 42.6-.4.2-7.6 12.2-15.9 26.8-16.5 29.1-16.8 30.2-12.4 37.2q5.6 8.7 1.4 15.2c-2.7 4.4-4.7 5.6-9.8 5.6-3.1 0-8.4-2.6-28.3-13.9a281 281 0 0 1-27.2-16.9c-3.4-3.5-3.8-8.2-1.3-13 2.2-4.3 6.3-6.2 13.5-6.2 5.2 0 6.5-.4 9.1-2.8 1.6-1.5 8.2-12 14.7-23.4l11.8-20.6-.5-60.4-.5-60.3-3.8-6.8c-3.5-6.2-3.7-7-2.7-10.2 1.4-4.4 5.4-7.5 9.4-7.5 1.9 0 6.8 2.1 12.6 5.3M639.4 837.5c2.7.9 6.5 2.7 8.5 4 3.3 2.2 4.1 2.3 9.6 1.3 8.2-1.3 13.8-.4 18.9 3.2a41 41 0 0 1 13.2 14.7c.7 2.8.2 2.8 9.4-.1 23.2-7.4 45.7-1.5 54.8 14.4l2.7 4.8 3-3a49 49 0 0 1 20.4-9.9c3-.6 9.9-.9 15.5-.7a48 48 0 0 1 19.7 4.2c1.2.5 2.4-.5 4.5-4.1 3.8-6.5 11-14 15.9-16.6 3.1-1.7 5.8-2.2 12.1-2.2s8.6-.4 10.1-1.7a55 55 0 0 1 21.6-8.5c17-3.1 39 .8 46.8 8.3l2.6 2.5 6.1-2a24 24 0 0 1 17.8-.6 25 25 0 0 1 16.9 15.2l1.2 3.6 7 .1c8.8.1 13.5 2.9 17.7 10.6a29 29 0 0 1-2.6 31.6c-5.7 6.5 2.5 3.6 12.2-4.4 8.2-6.7 12.1-8.2 22-8.2 14.8 0 23.9 3.2 33.3 11.9 17.2 15.9 32 45.4 38.9 77.3 3.3 15.5 3.1 39.1-.4 50.5-6.2 20.5-16.7 30.1-44.8 41.3-8.3 3.3-19.6 8.4-20.8 9.5a643 643 0 0 1 8.9 30c9.3 32.7 8.1 29.9 14.2 31.8 15.3 4.8 22.6 22.6 14.2 34.7a81 81 0 0 1-26.5 19.4c-14 7.2-55.5 24.3-73 30.1-51.9 16.9-100.7 20.6-142.9 10.8l-7.4-1.7-2.5-5.4c-4.2-9.3-2.8-24.7 2.8-30.7 1.9-2 1.9-2.3-1.4-21.5-6.6-38.5-18-96.9-18.8-95.7-1.4 2.1-.9 6.3 1.3 11.2 4 9.1 1.3 14.2-10.6 20.2q-7 3.6-12.7 9.6l-5.8 6-5-.5q-9-.8-12.6-10.4c-2.1-5.6-1.5-8.7 5.2-25.5a77 77 0 0 0 5.4-17.5c0-5.6-3.1-11.1-12.6-22-8.7-9.9-13.3-17.8-13.4-22.4q0-2.7-.9-1c-1.2 2.1-5.3 40.7-10.1 94l-5 54.2-1.1 9.7 4.5 6.5q24.1 35-39.4 44.3a411 411 0 0 1-71 .4 469 469 0 0 1-75.5-17.3c-36.9-12.4-62.7-25.4-67-33.9a26 26 0 0 1-1.5-16.9c1.6-6 8.9-13.1 15.2-14.9l4.6-1.3.7-5.7c.4-3.1 2-12.1 3.6-20s2.9-15.7 2.9-17.2c0-3.7-4-6.3-22-14.2-21.1-9.3-28.1-14.3-35.1-25.1-15.7-24-13.1-72 6-112.2 9-18.9 20.3-32.4 31.7-38 5.4-2.7 6.8-2.9 17.2-2.9l11.2-.1 3.6-5.3c2-2.9 4.9-6 6.5-7q2.9-1.5 2.3-3.1c-.3-.8-.8-4.9-1.1-9q-1-12.9 5.2-24.9a47.5 47.5 0 0 1 47.6-25.2c5.9 1 6.3.9 9.2-1.5 4.7-3.9 14-8.3 22.5-10.4 9.6-2.5 27-2.2 34.6.5m-492 100.7a260 260 0 0 0 8.7 18.2c.4.5 9.4 2.4 20 4.2s19.4 3.5 19.6 3.7-6.3 6.5-14.5 14l-14.9 13.6 2.9 19.7c1.5 10.9 2.6 19.9 2.4 20.1s-8-3.9-17.4-9.1c-9.3-5.3-17.5-9.6-18.1-9.6s-8.8 3.9-18.2 8.6-17.3 8.3-17.6 8c-.2-.2 1.3-9.1 3.4-19.8l3.9-19.4L93.7 976c-11.7-12.1-13.6-14.5-12.1-15.1 1.1-.4 8.7-1.5 16.9-2.4 8.3-.9 16.5-1.8 18.2-2.2 3.1-.5 3.9-1.6 12.5-17.9 5-9.6 9.5-17.4 9.8-17.4s4.1 7.8 8.4 17.2m1228.7 3.3 8.4 18.3c.1.1 9.2 1.9 20.1 3.8l20 3.7c.1.1-3.5 3.5-7.9 7.6l-15 13.8-6.8 6.3 2.9 20.1c2.4 16.9 2.6 19.9 1.4 19.4-.9-.3-8.7-4.6-17.5-9.5-8.7-5-16.3-9-16.7-9s-8.7 3.8-18.5 8.6c-9.7 4.7-17.9 8.4-18 8.2s1.4-9 3.6-19.7l3.9-19.5-2.7-3c-1.5-1.7-7.9-8.4-14.2-14.8l-11.4-11.6 3.4-.6c1.9-.4 11-1.5 20.3-2.6l17.1-2.2 9.5-18a323 323 0 0 1 9.6-17.5zM178.5 1103c4.2 9.1 8.2 17 8.8 17.6s9.7 2.6 20.2 4.3l19.3 3.5c.1.2-6.5 6.5-14.8 14-13.4 12.3-14.9 14-14.4 16.4 1.1 6.3 5.1 36.7 4.8 37.1-.2.2-8-4-17.5-9.3s-17.6-9.6-18-9.6c-.5 0-8.6 3.9-18 8.6a131 131 0 0 1-17.7 8c-.3-.3 1.1-8.8 3.2-18.8a395 395 0 0 0 3.6-19.7c0-.8-6.3-7.8-14.1-15.6l-14.1-14.2 3.4-.6c1.8-.4 9.8-1.3 17.8-2.2s15.7-1.8 17.2-2.1c2.2-.4 3.9-3.1 11.8-18a78 78 0 0 1 10.1-16.7c.4.4 4.2 8.2 8.4 17.3m1177 2.6q8 17.7 10 18.5c1.1.5 10.1 2.3 20 4a328 328 0 0 1 18.3 3.4c.2.1-6.4 6.4-14.6 13.9l-14.9 13.6 2.9 19.7c1.5 10.8 2.6 19.8 2.4 20.1-.3.2-8.2-4-17.7-9.3l-17.2-9.7-6.1 2.8c-3.3 1.5-11.4 5.3-18 8.6a77 77 0 0 1-12.3 5.5 206 206 0 0 1 3.1-18.4c2-9.8 3.6-18.7 3.6-19.7a80 80 0 0 0-13.6-15.8 123 123 0 0 1-13.1-14.4c.3-.3 9.2-1.6 19.7-2.9s19.5-2.6 20-3.1 4.7-8.4 9.6-17.7 9.1-16.7 9.4-16.7 4.2 7.9 8.5 17.6M255.4 1246.5a412 412 0 0 0 8.5 17.8c.4.4 9.4 2.2 19.9 4.1 10.6 1.8 19.4 3.5 19.6 3.7s-3.1 3.5-7.3 7.3l-14.8 13.7-7.3 6.7 2.9 19.8c1.6 11 2.8 20 2.6 20.2s-8.1-4.2-17.8-9.7l-17.6-9.9-18.2 8.9-18.4 8.9c-.1 0 1.6-9 3.8-20l4-19.9-14.3-14.8-14.3-14.8 18.9-2.2 20.4-2.3c.9 0 5.3-7.2 11-18a116 116 0 0 1 10.1-17.2c.3.4 4.1 8.3 8.3 17.7m1028.5 3 8.4 18.1 18.2 3.3c9.9 1.8 18.8 3.5 19.8 3.9 1.5.6-.8 3.1-12.7 14.1a92 92 0 0 0-14.6 15.1c0 1 1.2 9.7 2.6 19.5a198 198 0 0 1 2.2 18.5c-.2.5-8.1-3.5-17.7-8.9l-17.4-9.8-18.1 8.8c-10 4.8-18.2 8.5-18.4 8s1.5-9.2 3.7-19.6l3.9-18.9-6.8-7.6c-3.8-4.1-10-10.6-13.9-14.5a59 59 0 0 1-7.1-7.6 63 63 0 0 1 11.3-1.8c6.1-.6 15.1-1.7 19.9-2.3l8.8-1.1 6.6-12.6a164 164 0 0 1 12.9-22.9zM598.5 1292c31.8 1.9 50.4 9 67 25.5a56 56 0 0 1 16.9 30.7c5.5 27-5.1 46.2-30.4 55-9.5 3.3-23.2 4.8-43.7 4.8-16.1 0-19.4.3-20.7 1.6-1.9 1.9-2.3 17.8-.5 21.7.6 1.4 3.5 3.7 6.8 5.3 3.5 1.8 6.1 3.9 6.9 5.7 1.9 4 .6 8.5-3.1 10.8-3 1.7-5.3 1.9-30.8 1.9-17.6 0-28.8-.4-30.8-1.1-3.7-1.3-5.1-3.5-5.1-8.2 0-3.8 2.3-6.4 8.7-9.6 2.3-1.2 4.7-3 5.3-4 .6-1.3 1-21.7 1-59.1v-57.2l-2.9-2.9c-1.6-1.6-3.6-2.9-4.4-2.9s-2.9-1.2-4.6-2.6c-2.5-2-3.1-3.4-3.1-6.4q0-7.2 7.5-8.9a482 482 0 0 1 60-.1m156.7 0c4.3 1.2 6.8 4.2 6.8 8.1q.1 5.6-8.5 8.6c-4.7 1.7-5.1 2.2-6.8 7.2-2 6-5.8 57.6-5.9 81.1-.2 28.9 7.5 38.3 31.7 38.4 20.8 0 31.7-8.1 34.5-25.9.9-5.5.7-14.2-1-42.5-3-51.6-3.7-55.3-10.7-58.8a23 23 0 0 1-5.7-4.1c-2.5-2.7-2.3-7.8.4-10.5 1.9-1.9 3.4-2.1 20.2-2.4 10-.2 20.2-.1 22.6.3q8.1 1.2 8.2 7.8c0 3.9-2.3 6.4-8.8 9.6-6.9 3.5-6.9 3.3-4.4 37.9 4 54.9 4.4 63.8 3.2 71.5-3.9 25.6-22.2 38.1-57.5 39.4-27.9 1.1-48.6-4.2-60.6-15.4-9.7-9-13.9-20-13.9-36.3a800 800 0 0 1 3.7-49.2c2.6-28.4 3.4-40.6 2.7-42.5q-1-2.7-5.9-5.5-8.6-4.6-8.5-9.3c0-2.9 3.5-7.3 6.3-7.8 4.8-.9 54.4-.6 57.9.3m173.3 0c29.2 2.7 46.3 14.3 49.3 33.5 2.1 13.1-1.7 21.8-12.5 29.1l-6.2 4.2 3.7.7a75 75 0 0 1 24 11 47 47 0 0 1 15.9 21.1c9.8 27.2-4 52.7-33.2 61.1-5.3 1.5-12.3 1.7-57.2 2.1-57.1.4-56.1.5-58.3-6.3-1.7-5.1.2-8.3 7.3-11.7q5.7-3 6.7-5.4c.6-1.5 1-25.3 1-58.7 0-62.8.4-59.4-7.1-62.4-5.6-2.2-9.2-6.8-8.5-10.7q1.4-6.3 8.3-7.6c5.6-1.1 55.1-1.1 66.8 0m-557.1 76.2c4.3 9.5 8.2 17.7 8.6 18.1s9.4 2.4 20 4.2a361 361 0 0 1 19.6 3.8c.2.2-6.3 6.5-14.4 14l-14.9 13.6 2.9 19.7c1.5 10.9 2.6 19.9 2.4 20.1s-8-3.9-17.3-9.1c-9.3-5.3-17.5-9.6-18.1-9.6s-8.9 3.9-18.3 8.6-17.3 8.3-17.6 8c-.2-.2 1.2-8.4 3.1-18.3s3.6-18.6 3.6-19.7-6.1-8.1-13.5-15.9a91 91 0 0 1-12.8-14.7c.4-.4 8-1.5 16.8-2.4s17.5-2 19.2-2.3c3.1-.5 3.8-1.6 12.4-17.9 5-9.6 9.5-17.4 9.8-17.4s4.2 7.8 8.5 17.2m793.6 5.3 7.5 16.3c.1.1 9.1 1.8 20 3.7s19.9 3.6 20 3.7-6.4 6.4-14.6 13.8a139 139 0 0 0-14.8 14.5c0 .5 1.2 9.7 2.8 20.3 2.3 16.3 2.5 19.2 1.3 18.7-.8-.3-8.6-4.6-17.4-9.5s-16.2-9-16.7-9-9 3.8-18.7 8.5-17.8 8.4-18 8.3c-.1-.2 1.5-9 3.7-19.7 3.7-18.5 3.8-19.6 2.2-21.5-.9-1.2-7.3-7.8-14.2-14.8-11.4-11.6-12.2-12.7-10-13.2a440 440 0 0 1 20.3-2.6 271 271 0 0 0 18.1-2.3l9.5-18c8.7-16.4 9.5-17.6 10.6-15.5zm-649.9 101.6a291 291 0 0 0 8.8 18.2c.4.4 8.4 2.1 17.7 3.7s18.1 3.2 19.6 3.6c2.5.5 1.8 1.3-12 14.1l-15 14.2c-.1.4 1.1 9.5 2.6 20.4a256 256 0 0 1 2.5 19.7l-17.2-9.5c-9.3-5.2-17.5-9.5-18.2-9.5-.8 0-9.2 3.8-18.8 8.5-9.5 4.7-17.4 8.5-17.6 8.5l3.8-20.1 4-20.1-14.3-14.3q-14.3-14.3-12.9-14.9c.8-.2 9.9-1.4 20.4-2.6l19.1-2.3 9.4-17.9a217 217 0 0 1 9.7-17.4c.2.2 4 8.1 8.4 17.7m507.4 1.4c4.3 9.3 8.2 17.3 8.6 17.6s9.4 2 19.6 3.8 19 3.4 19.2 3.7c.3.2-3.5 4.1-8.5 8.7l-14.7 13.7-5.8 5.5 2.9 19.7a160 160 0 0 1 2.2 19.8c-.4 0-8.5-4.4-18-9.7l-17.3-9.6-17.3 8.6c-9.6 4.8-17.8 8.7-18.3 8.7s1-8.8 3.1-19.6l4-19.7-5.9-6.1-14.2-14.7-8.3-8.7 3.8-.6 18.4-2.1 16.5-2c1.2-.3 3.4-3 5.6-7.2l9.4-17.6c3.2-6 6.1-10.5 6.5-10s4.3 8.4 8.5 17.8M790 1495.9c15.9 5.5 30.4 14.5 35.1 22 7.5 11.8 1.5 21.6-23.1 37.6q-27.5 17.9 3 8c22.7-7.3 34.9-5.1 39.6 7 4.7 12.4-2.8 43.9-13.1 55.3-6.8 7.6-15 8.9-25.7 4-10.2-4.7-21.8-18-21.8-24.9 0-3.5-4.4-16.7-7.7-23.2l-2.6-5.2-1.8 10.6c-4.5 26.8-16 51.1-25.3 53.5-3.3.8-7.1-1.6-9.9-6.4l-1.8-3.1 3.9-5.3a86 86 0 0 0 16.9-41.4l.6-7.7-5 .5c-3 .3-8.9 2.3-14.9 5.1-12.1 5.6-17.9 7.1-24.8 6.4-17.1-1.7-24.8-15.5-19.7-35.2 4.5-17.3 17.1-36.7 25.7-39.5 10.3-3.4 20 4.9 31.2 26.7 5.2 10.1 8.3 14 10.1 12.8 1.9-1.1 1.2-8.8-1.4-16.4-7.1-21-4.2-38.1 7.5-43 3.9-1.7 17.7-.7 25 1.8"/><path d="M860.2 262.6c-4.8 3.4-6.5 11.2-4.1 19.7 1.2 4.3.2 4.4 13.9-.7 8.1-2.9 8.5-3.3 8.8-6.3.9-9.4-11.4-17.8-18.6-12.7m-35.3 110.7c-7.2 2.7-12.5 7.9-18.1 17.7-15.5 27.5-17.7 75.3-4.7 101.2 6.9 13.6 17 20.8 29.5 20.8q25.2 0 34.5-34.5c1.9-6.9 2.2-10.8 2.3-28 .1-21.4-.8-29.2-5.1-43-4.8-15.3-12.4-27.2-20.6-31.9-5.3-3.1-13-4.1-17.8-2.3m-494.8 29.1a679 679 0 0 0-18.1 53.8c0 1 1.1 2.5 2.5 3.4 2 1.3 4.6 1.5 14.7 1.2 14.5-.4 18.1-1.7 18.6-6.4.3-3.5-13.3-50.2-15.2-52.2-1-1.1-1.5-1-2.5.2m305.3-25c-6.5 2.9-6.4 2.5-6.4 39.8 0 37.9.4 40.4 6.3 43.1 12.3 5.7 33.2.5 41.3-10.1a43 43 0 0 0 8.2-26.5q1.5-32.8-19-43.8c-5.8-3.1-7.1-3.4-16.8-3.6-7.5-.2-11.4.1-13.6 1.1m351.9.1c-6.3 2.7-6.4 3.8-6.1 42 .3 33 .4 34.5 2.4 37.2 3.2 4.3 7 5.7 15.9 5.7 19.1-.1 31.4-9.2 36.1-26.6a92 92 0 0 0-.1-32.3 37 37 0 0 0-22.7-25.9c-6.3-2-21-2.1-25.5-.1m186.8 24.9a679 679 0 0 0-18.1 53.8c0 1 1.1 2.5 2.5 3.4 2 1.3 4.6 1.5 14.7 1.2 14.6-.4 18.1-1.7 18.6-6.5.4-3.5-13.2-50.1-15.2-52.1-1-1.1-1.5-1-2.5.2M847 596.6a39 39 0 0 0-14.7 14.6 133 133 0 0 0-17.9 53c-2 13.6-1.4 42.2 1 53.1 3.4 14.9 10.7 29.1 18.4 35.8 9.9 8.7 24 10.8 35.9 5.5 19.6-8.9 30.3-36.1 30.3-77.1-.1-36.7-9-66.2-24.4-80.3-6.1-5.6-10.1-7.2-17.8-7.2-4.9 0-7.3.6-10.8 2.6m-419.8 38.3a29 29 0 0 0-13.5 9.3c-16.4 21.4-13 78.3 7 117 8.4 16.5 18.1 27 30.3 33.1a33 33 0 0 0 44.2-15.7q11.6-22.9-.1-64.7c-7.9-27.9-20.7-51.6-35.9-66q-17.3-16.5-32-13m182.1 215.2c-10.7 2.1-19.5 7.9-22.8 15-2.2 4.8-2.2 4.8-4 2.9a29 29 0 0 0-7.2-4.6c-10.3-5.1-23.1-1.7-32.9 8.8a38 38 0 0 0-10.7 25.1c0 6.7 1 10.4 5.1 17.9.1.3-1.3 1.1-3.2 1.8-7.5 2.4-11.8 11.2-10.1 20.8.8 4.8 5.5 15.2 7.8 17 1.4 1.2 1.3 1.9-1.4 7.5a31 31 0 0 0-1.3 23.1 38 38 0 0 0 18.2 18.8c5.7 2.9 7.9 3.3 15.7 3.6 8.4.3 11.5-.2 18.7-3.2 1.3-.6 1.7 0 2.2 3.1 1.6 9.3 8.1 15.6 16.1 15.6 13.3 0 19-18.3 9.1-29.3-2-2.2-3.6-4.9-3.6-5.9 0-1.1 1.8-3.5 4.1-5.3l8.7-7.3 4.5-4-.7-10.6c-.9-13.8 0-14.8 7.1-8 14.2 13.7 41.3 19.2 58 11.6 3.4-1.5 7.2-3.8 8.4-5.1 2.9-3.1 3.9-3 3.9.4 0 1.5 1 5.6 2.1 9.1 1.6 4.8 2.7 6.5 4.7 7.2 3.1 1.2 9 .3 15-2.2 2.4-1.1 4.5-1.9 4.6-1.9.2 0 .6 3.3.9 7.3a38 38 0 0 0 2.7 12l2.2 4.7h5.8c3.2 0 7-.4 8.3-.9 2.8-1.1 5.7-6.6 5.7-10.9 0-2.8-.9-4.4-9.5-16.3a24 24 0 0 1-3.6-10.3c-1-7.5-2.5-11-7-16.1a15 15 0 0 1-2.9-15.1 46 46 0 0 1 9-11.9c9.9-10.3 11.3-13.1 10.8-20.6-.5-6.8-3.6-11.6-10.6-16a40 40 0 0 0-23.2-6.3c-9.7.1-13.8 1.4-19.6 6.7-8.5 7.5-10.6 7.5-12.1-.3-3.1-16.5-17.8-25.9-28.8-18.4l-3.8 2.5-3.6-3.4c-8.4-8.1-22.7-11.4-36.8-8.6"/><path d="M878.8 851.9a34 34 0 0 0-16.1 10.1c-3 3.2-3.8 3.6-4.8 2.4-.6-.7-2.9-1.9-5.1-2.5-5.7-1.5-12.6.4-17.7 4.8l-4.1 3.5v7.9c0 4.4-.5 8.9-1 10-1.7 3.1-7.4 2.5-12.2-1.2-5.3-4.3-10-5.8-17.8-5.8-22.3-.2-42.2 16-42.4 34.5l-.1 6.4h-3.8c-7.8 0-12.6 5.5-10.7 12.1 1.2 4.1 3.2 6.2 8 8.4 3.5 1.6 3.8 2 2.9 4.2-2.2 5.9-1.1 11.7 4.2 21.9 4.3 8.2 5.3 10.9 5.7 16.4l.4 6.6-6 6.8c-7 7.9-8.7 12.6-8.6 23.6 0 5.9.6 8.7 2.6 13.2a47 47 0 0 0 17.7 19.1l5.3 3-.5 13.1c-.3 9.5-1.5 18.2-4.1 31.5a142 142 0 0 0-3.2 18.9c1.5 1.4 5.8-2.1 7.5-6.1 2.4-5.6 3.5-6.4 10.6-7.4 5.7-.8 6-1 5.6-3.3-.2-1.4-.3-9.9-.2-18.9.2-14.9 0-16.7-2-20.8l-2.1-4.4 2.1-1.5c1.2-.9 2.8-2.9 3.7-4.6 3.1-6-.2-18.3-6.7-24.8q-2.7-2.7-1.9-3.5c.6-.3 2.6-3.2 4.6-6.3 5.9-9.3 6.2-9.5 9.2-7.2 3.7 3 9.7 2.7 12.7-.6 4.6-4.9 3.2-18-2.2-21.4q-1.5-1-.8-1.6c6-2.8 11.2-6.4 12.2-8.4a21 21 0 0 0 1.3-7.5c0-2.8.5-5.7 1-6.5.8-1.3 1.3-1.3 3.7.3 13.3 8.7 29.5 8.9 47 .7q11.9-5.4 20.4-13.7l4.6-4.4.6 7.1c1 12.4 7.1 22.1 16.4 26.2l4.3 1.9-2.2 4.2a45 45 0 0 0-1.9 24c.7 2 2.8 5 4.7 6.7 2.9 2.5 4.3 3 8.5 3 2.8 0 5.9-.5 7-1 2.5-1.4 5.4-7.1 7.5-15.2l1.8-6.6 4.5 2a42 42 0 0 0 21.7 1.9c9.1-2.5 14.5-8.3 15.2-16.4.5-6.9-.6-10.4-6.8-20.2a44 44 0 0 1-5-9.3c0-.8.8-2.6 1.9-4 6.5-9.4 5.7-30.2-1.8-44.2l-1.9-3.5 3.6-2a21 21 0 0 0 6-5.5c2-2.9 2.3-4.4 1.9-8.9s-.9-5.9-3.6-8.3c-3.7-3.3-9.3-3.8-14.3-1.2-2.8 1.5-3.1 1.4-5.3-.6a30 30 0 0 1-4.4-9.6c-2.5-8.5-4.5-11-9.6-12q-7.3-1.1-15.1 6.7a22 22 0 0 1-4.5 3.9c-.4 0-1.2-1.3-1.8-2.9a31 31 0 0 0-13.6-12.3c-7-3.1-24.4-3.6-32.7-.9m142.6 56a43 43 0 0 0-18.6 11.4c-5.2 5.3-5.8 6.3-5.8 10 0 2.3-.9 8.2-2 13.1-2.5 11.4-2.5 14.3.1 18.6 2.5 4 1.8 4.5 9.3-8.4a51 51 0 0 1 16.8-19.2c1.8-.9 6.3-1.9 10-2.2 5.9-.4 7.5-.1 12.2 2.2 15.9 7.8 26.8 32.7 26.9 61.6 0 19.4-4 32.5-13 42.1-5.3 5.7-9.8 8.2-22 12.4q-8.4 2.9-8.3 4.4c0 2.5 4.2 16.1 5 16.1 2 0 30.8-12.3 34.9-14.9a45 45 0 0 0 19.8-28.1c2.3-8.7 2.3-29.3-.1-41.3-5.1-26.5-19.4-54.8-34.2-67.5-9.6-8.3-22.3-12.5-31-10.3m-534.1 30c-10 4.6-17.4 13.4-25.9 30.6a161 161 0 0 0-16 61.2c-1.5 26.3 5.5 42.6 23 52.8a231 231 0 0 0 19.3 9.1l14.3 6.2 1.5-3.4a69 69 0 0 0 3.2-14l-7.2-2.3a55 55 0 0 1-37.6-42.4c-4.4-26.4 10.2-67.4 26.6-74.3q11-4.7 22.3 5.2l4.1 3.5 1.7-3.2c2.2-4.3 1.3-8.6-3-15-1.9-2.9-4-7.4-4.7-10-1.1-4-1.7-4.8-4.2-5.3a33 33 0 0 0-17.4 1.3"/><path d="M1028.2 945.1a57 57 0 0 0-20 23.8c-4.7 9.3-4.7 9.5-4.7 19.5 0 9.6.2 10.5 3.9 18.6 6.7 14.8 9.7 23.1 10.3 28.1.3 2.7 1.1 4.9 1.7 4.9a87 87 0 0 0 20.9-6.8c13.8-7.4 20.2-23.2 17.7-43.4-2.6-21.8-9.5-38.8-17.9-44.5-4.2-2.8-6.4-2.9-11.9-.2m-394.3 29.7a44 44 0 0 1-5.5 9.6c-5.4 7.2-5.9 8.9-3.9 14.5 4 11.3.2 27-8.7 36.1-2.2 2.2-2.6 4-3.7 15.5a621 621 0 0 1-5.1 36c-8.6 50-10.8 63.2-11.4 67.2s-.6 4.1 4.2 6.5c3.9 1.9 6.3 2.3 13.9 2.3 5 0 9.3-.2 9.6-.5s1.9-16.7 3.6-36.5A2980 2980 0 0 1 637 1027c2.1-15.6 6.5-44.3 7.6-48.7q.6-2.2-.5-2.3c-.6 0-2.9-1.1-5.1-2.5l-3.9-2.4zm-141.2-.9c-10.8 7.1-19.3 32.8-18.5 56.2.4 10.4.7 12.2 3.3 17.5 3.7 7.2 8.6 11.1 19.2 15.2 13.4 5.2 12.9 5.2 13.7-1 .4-2.9 2.5-10.7 4.6-17.3 8.7-26.7 9-32.2 2.5-49.6a80 80 0 0 0-7.1-15.6c-5.3-7-12.2-9.1-17.7-5.4m393.3-.1c0 .5-1.6 1.7-3.5 2.8s-3.8 2.6-4.1 3.6 1.7 8.7 4.5 17.1a928 928 0 0 1 22.6 91.7 1517 1517 0 0 0 15.6 69.4l1.1 3.9 7.1-.7c7.7-.7 17-4.4 18.7-7.5.6-1.3-2.3-12.7-11.1-42.7-6.6-22.5-14-48.7-16.5-58.3l-4.6-17.4-5.2-5.1a34 34 0 0 1-9.1-33.2c1.4-4.8 1.4-5.9.3-6.3a39 39 0 0 1-11.4-13c-2.5-4.6-4.4-6.5-4.4-4.3m-199.3 4.5c-1.1.9-1.6 4.3-2.1 13.7a544 544 0 0 1-7.7 64l-7.9 45.9c-3.8 21.9-7.7 56.8-6.7 59.5 1.2 3 20.8 6.1 24.4 3.8 2.7-1.7 9.3-50 13.8-100.7l4.6-50.4 2-21.4-3.1-2.5a78 78 0 0 1-6.8-6.4q-7.4-8-10.5-5.5"/><path d="M656.3 984.4c-3.9 3.3-5 7.2-7.4 27.1-1.1 9.3-2.6 21.3-3.4 26.5-3.4 23.3-7 64.4-8.5 99-1 23.7-1.8 28.1-6.1 32-8.7 8.2-29.5 5.7-41.1-4.9-4.7-4.4-5.1-5.1-5.5-10.2-.3-3.7.5-9.6 2.6-18.9 3-13.5 17.3-93.3 16.8-93.6a96 96 0 0 0-18.7-5.8l-3.4-.1-2.8 23a556 556 0 0 0-3.7 49c-.5 14.3-1.4 28.3-2.1 31.2-1.6 7.2-4.6 11.4-10.5 14.3a35 35 0 0 1-35.6-5.9c-8.1-8-7.6-18.2 2.7-65.3a547 547 0 0 0 10.4-54.6c0-3.4-2.9-9.7-4-8.6a300 300 0 0 0-11.8 42.9c-3.8 17.1-19.4 97.9-19.6 101.8-.1 1.4 2.1 2.8 9.4 5.9a381 381 0 0 0 137.1 28.5c22.3.6 54-.9 56.7-2.6 1.1-.7 14.5-117.1 18.4-159.7l2.2-25.1-4.8-4.6a25 25 0 0 0-5.6-4.7c-.4 0-1.1 4.6-1.5 10.2-.7 11.7-3.3 35.6-6.9 63.3a742 742 0 0 0-3.6 43.5c-2.2 49.2-6.4 58-27.5 58-7.2 0-16.6-2.3-21.1-5.1a19 19 0 0 1-5.5-6.5c-2.9-6.2-2.3-15 2.4-31.4 6.3-21.9 14.3-78.3 17.7-124l1.5-20.8.6-6.2h-7.5c-6.4 0-7.8.3-10.3 2.4m173.2 2.1c-4.6 6-6.7 14.5-6.7 27.5 0 14.1 1.7 24.1 9.3 57 7.1 30.6 6.9 29.7 11.4 53.5 4.1 21.4 6.6 32.1 9.6 40.1l2 5.4h7.2a25 25 0 0 0 13.5-3l6.3-3-.7-3.7c-1.9-10.7-12.6-51.3-22.9-87.3-9.3-32.4-19.3-70.6-23.1-87.8q-1.2-4.7-5.9 1.3"/><path d="m849.7 990 5.4 28a909 909 0 0 0 32 120c8.4 21.8 7.9 28.8-2.5 36-10.8 7.3-25.1 9.4-34.3 4.9-8.8-4.4-12.2-14.1-17.3-48.8a958 958 0 0 0-8-44.1c-2.7-12.9-6.4-31.5-8.1-41.3l-3.3-17.7h-4.5c-2.5 0-5.7-.3-7-.7-2.1-.5-2.3-.4-1.6 1.3a84 84 0 0 1 5.6 25.8c2.8 22.9 5.7 36.9 17.9 85.6 5.9 23.9 11.6 48.2 12.6 53.9l1.8 10.4 19-.7c53.5-1.9 99.4-11.3 140.6-28.8a541 541 0 0 0 40.3-20c1.8-1.3 1.6-2.2-3.2-18.8-2.8-9.6-10.4-34.8-17.1-56-6.6-21.2-14.6-47.6-17.7-58.8q-5.7-20-7.1-20.2c-.7 0-2.4 1.1-3.7 2.5-3.1 3-3.2 7.1-.5 15.1 1.2 3.2 3.7 12.2 5.6 19.9 4.9 19.4 7.7 28.5 14.6 47 10.2 27 12.8 41.4 9.2 49.1-4.9 10.3-26.9 18.6-37.5 14.1-7.2-3-12-12.9-15.8-32.7a3802 3802 0 0 1-12.8-68.2c-1.4-8.7-3-16.3-3.4-16.9q-.6-1.2-6.5 2.4a46 46 0 0 1-14.9 5.9c-.8.7 18.4 65.3 22.5 75.8 5.3 13.6 9 27.9 9 34.4q-.1 14.5-16.3 21.6c-10.6 4.7-20.8 4.5-27.4-.5-6.4-5-9.6-14.8-13.8-43.5a909 909 0 0 0-28.7-126.8l-4.2-13.3-9.7.3-9.7.3z"/><path d="M966 1013.1a28 28 0 0 1-7.2.6q-2.6-.3-2.8.7c0 .6 2.9 14.4 6.5 30.6s8.2 38.5 10.1 49.5c3.8 22 5.6 29.4 9 37.2 2.3 5.2 2.3 5.3 6.7 5.3 6.6 0 14.2-2.7 18.1-6.4l3.5-3.3-3.5-13.4c-6.5-24.7-18.2-63.3-28.2-92.9-3.2-9.5-3.5-9.7-12.2-7.9m-407.2 8.6c-10.1.4-8.9-1.2-10.8 14.8-.6 5.5-3.8 23.2-7 39.3a450 450 0 0 0-9.2 57.2l-.3 5.5 5.1 2.8c5.8 3 15.4 4.5 19.5 2.9 2.3-.9 2.6-1.9 4.7-14.5 2.8-16.7 5.8-43.6 7.2-62.7 1.2-17 1.3-46.1.3-45.8-.5.1-4.7.4-9.5.5m488.1 142c-29.2 17.6-76.8 35-119.5 43.7a250 250 0 0 1-63.9 6c-29.9.1-31 .2-35.7 4.4-2.5 2.1-2.2 6.4.6 9.1q8.1 7.6 50.6 7.5c49.1-.1 89.6-11.5 151.3-42.6 28.8-14.5 34.9-20 30.1-27.3-.8-1.3-2.6-3-3.8-3.8-2.1-1.4-2.8-1.2-9.7 3m-558.4 11.9c-3.9 4.2-3.4 7.9 2 13.1 12.9 12.3 73.5 33.1 116.5 39.8 14 2.2 54.2 3.1 69.2 1.6 14.8-1.5 34.3-4.9 38.3-6.5 4.2-1.8 7.5-6.2 7.5-10 0-5.7-.4-5.9-13.6-4.6-15 1.4-58 1.4-74.4 0a419 419 0 0 1-141.7-35.7c-.7-.3-2.4.7-3.8 2.3m104.7 138.5c-1.9.6-4.1 2.3-5.3 4.2-1.8 3-1.9 4.8-1.7 34 .3 30.8.3 30.9 2.6 32.7 3.1 2.6 11.5 3.4 20.1 2.1q19.5-3 26.8-17.9c2.6-5.2 2.8-6.7 2.8-16.7 0-10.5-.2-11.4-3.3-17.7a40 40 0 0 0-19.7-18.7 44 44 0 0 0-22.3-2m318.3-1.6c-2.4 2.3-2.5 2.8-2.5 17.7 0 19 .4 19.8 8.8 19.8 7.2 0 13.1-2.7 16.8-7.5 2.4-3.1 2.9-5 3.2-10.6.4-5.9 0-7.7-2.2-12.4-3.6-7.2-7.3-9.5-15.5-9.5-5.2 0-6.6.4-8.6 2.5m2.5 54.7c-4.8 2.6-5 4.2-4.8 35.1l.3 28.9 2.5 2c2.2 1.8 3.6 2 12.5 1.6 11.5-.5 16.8-2.3 23.3-8.3 7.7-6.9 11-18.6 9.2-31.8a32 32 0 0 0-18.5-25.8c-6.2-2.8-20.6-3.7-24.5-1.7M.2 1014.2 0 1801h772.5l-21.5-7.4a1592 1592 0 0 1-271-124.4c-186.6-108.4-324-242.4-400.6-390.7A668 668 0 0 1 7.5 1038c-3.5-34.7-3.3-14.9-6.4-661-.5-92.4-.8 150.8-.9 637.2m1520.8 5.5c0 8.1-3.6 39-6.6 56.2-20.2 117.5-76.7 236-162 340.2-124.1 151.3-305.9 275.2-544.4 371l-34.5 13.9H1522v-393.5c0-216.4-.2-393.5-.5-393.5s-.5 2.6-.5 5.7"/></g></svg>